<mxfile host="app.diagrams.net" agent="Mozilla/5.0 (Windows NT 10.0; Win64; x64) AppleWebKit/537.36 (KHTML, like Gecko) Chrome/140.0.0.0 Safari/537.36 Edg/140.0.0.0" version="28.2.3">
  <diagram name="ページ1" id="rCnxHPRBjKmqfibo1RZr">
    <mxGraphModel dx="925" dy="418" grid="1" gridSize="10" guides="1" tooltips="1" connect="1" arrows="1" fold="1" page="1" pageScale="1" pageWidth="827" pageHeight="1169" math="0" shadow="0">
      <root>
        <mxCell id="0" />
        <mxCell id="1" parent="0" />
        <mxCell id="YcSd6894ZpRroEDKiYNy-1" value="ユーザー" style="shape=umlActor;verticalLabelPosition=bottom;verticalAlign=top;html=1;outlineConnect=0;" vertex="1" parent="1">
          <mxGeometry x="80" y="320" width="60" height="80" as="geometry" />
        </mxCell>
        <mxCell id="YcSd6894ZpRroEDKiYNy-3" value="訪問者一覧の&lt;div&gt;画面&lt;/div&gt;" style="shape=umlBoundary;whiteSpace=wrap;html=1;" vertex="1" parent="1">
          <mxGeometry x="300" y="490" width="100" height="80" as="geometry" />
        </mxCell>
        <mxCell id="YcSd6894ZpRroEDKiYNy-4" value="Web_visiter&lt;div&gt;システムメニュー&lt;/div&gt;" style="shape=umlBoundary;whiteSpace=wrap;html=1;" vertex="1" parent="1">
          <mxGeometry x="190" y="210" width="120" height="100" as="geometry" />
        </mxCell>
        <mxCell id="YcSd6894ZpRroEDKiYNy-5" value="訪問者一覧の&lt;div&gt;メニュー画面表示&lt;/div&gt;" style="ellipse;shape=umlControl;whiteSpace=wrap;html=1;" vertex="1" parent="1">
          <mxGeometry x="600" y="270" width="114" height="120" as="geometry" />
        </mxCell>
        <mxCell id="YcSd6894ZpRroEDKiYNy-6" value="訪問者一覧の表示メニューを選択" style="ellipse;shape=umlControl;whiteSpace=wrap;html=1;" vertex="1" parent="1">
          <mxGeometry x="400" y="180" width="96" height="110" as="geometry" />
        </mxCell>
        <mxCell id="YcSd6894ZpRroEDKiYNy-7" value="Web_visiter" style="ellipse;shape=umlEntity;whiteSpace=wrap;html=1;" vertex="1" parent="1">
          <mxGeometry x="780" y="340" width="80" height="80" as="geometry" />
        </mxCell>
        <mxCell id="YcSd6894ZpRroEDKiYNy-8" value="" style="endArrow=open;endFill=1;endSize=12;html=1;rounded=0;entryX=0.017;entryY=0.476;entryDx=0;entryDy=0;entryPerimeter=0;exitX=0.99;exitY=0.552;exitDx=0;exitDy=0;exitPerimeter=0;" edge="1" parent="1" source="YcSd6894ZpRroEDKiYNy-6" target="YcSd6894ZpRroEDKiYNy-5">
          <mxGeometry width="160" relative="1" as="geometry">
            <mxPoint x="330" y="340" as="sourcePoint" />
            <mxPoint x="590.96" y="330" as="targetPoint" />
          </mxGeometry>
        </mxCell>
        <mxCell id="YcSd6894ZpRroEDKiYNy-9" value="" style="endArrow=open;endFill=1;endSize=12;html=1;rounded=0;exitX=1.003;exitY=0.493;exitDx=0;exitDy=0;exitPerimeter=0;entryX=0.031;entryY=0.442;entryDx=0;entryDy=0;entryPerimeter=0;" edge="1" parent="1" source="YcSd6894ZpRroEDKiYNy-4" target="YcSd6894ZpRroEDKiYNy-6">
          <mxGeometry width="160" relative="1" as="geometry">
            <mxPoint x="330" y="290" as="sourcePoint" />
            <mxPoint x="490" y="290" as="targetPoint" />
          </mxGeometry>
        </mxCell>
        <mxCell id="YcSd6894ZpRroEDKiYNy-10" value="" style="endArrow=open;endFill=1;endSize=12;html=1;rounded=0;exitX=0.75;exitY=0.1;exitDx=0;exitDy=0;exitPerimeter=0;entryX=-0.019;entryY=0.5;entryDx=0;entryDy=0;entryPerimeter=0;" edge="1" parent="1" source="YcSd6894ZpRroEDKiYNy-1" target="YcSd6894ZpRroEDKiYNy-4">
          <mxGeometry width="160" relative="1" as="geometry">
            <mxPoint x="330" y="290" as="sourcePoint" />
            <mxPoint x="490" y="290" as="targetPoint" />
          </mxGeometry>
        </mxCell>
        <mxCell id="YcSd6894ZpRroEDKiYNy-11" value="ユーザーID順に&lt;div&gt;表示する&lt;/div&gt;" style="text;html=1;align=center;verticalAlign=middle;whiteSpace=wrap;rounded=0;" vertex="1" parent="1">
          <mxGeometry x="496" y="240" width="160" height="50" as="geometry" />
        </mxCell>
        <mxCell id="YcSd6894ZpRroEDKiYNy-12" value="" style="endArrow=classic;html=1;rounded=0;entryX=0.9;entryY=0.125;entryDx=0;entryDy=0;entryPerimeter=0;exitX=0.089;exitY=0.847;exitDx=0;exitDy=0;exitPerimeter=0;" edge="1" parent="1" source="YcSd6894ZpRroEDKiYNy-5" target="YcSd6894ZpRroEDKiYNy-3">
          <mxGeometry width="50" height="50" relative="1" as="geometry">
            <mxPoint x="180" y="394.44" as="sourcePoint" />
            <mxPoint x="480.72" y="365.56" as="targetPoint" />
          </mxGeometry>
        </mxCell>
        <mxCell id="YcSd6894ZpRroEDKiYNy-14" value="" style="endArrow=classic;startArrow=classic;html=1;rounded=0;entryX=0;entryY=0.5;entryDx=0;entryDy=0;exitX=0.929;exitY=0.807;exitDx=0;exitDy=0;exitPerimeter=0;" edge="1" parent="1" source="YcSd6894ZpRroEDKiYNy-5" target="YcSd6894ZpRroEDKiYNy-7">
          <mxGeometry width="50" height="50" relative="1" as="geometry">
            <mxPoint x="490" y="400" as="sourcePoint" />
            <mxPoint x="550" y="350" as="targetPoint" />
          </mxGeometry>
        </mxCell>
      </root>
    </mxGraphModel>
  </diagram>
</mxfile>
